<svg width="30" height="28" viewBox="0 0 60 58" fill="none" xmlns="http://www.w3.org/2000/svg">
<path d="M48.8202 24.2119H38.511C38.5992 23.6361 38.6435 23.0544 38.6434 22.4718V11.3165C38.6401 8.31621 37.4611 5.43979 35.3652 3.31827C33.2694 1.19675 30.4277 0.00339318 27.4637 0H11.1797C8.21571 0.00339721 5.37405 1.19676 3.27817 3.31828C1.18229 5.43979 0.00335217 8.31621 0 11.3165V22.4717C0.00335615 25.472 1.18229 28.3484 3.27817 30.47C5.37405 32.5915 8.21571 33.7848 11.1797 33.7882H21.4915C21.4021 34.3638 21.357 34.9456 21.3565 35.5283V46.6836C21.3599 49.6839 22.5388 52.5603 24.6347 54.6818C26.7306 56.8033 29.5722 57.9966 32.5362 58H48.8203C51.7843 57.9966 54.626 56.8033 56.7219 54.6818C58.8177 52.5603 59.9967 49.6839 60 46.6836V35.5283C59.9966 32.528 58.8177 29.6516 56.7218 27.5301C54.6259 25.4086 51.7842 24.2152 48.8202 24.2119ZM2.40949 22.4717V11.3165C2.41212 8.96285 3.33697 6.70637 4.98114 5.0421C6.62531 3.37783 8.85453 2.44168 11.1797 2.43903H27.4637C29.7889 2.44168 32.0181 3.37784 33.6622 5.04211C35.3064 6.70638 36.2312 8.96286 36.2339 11.3165V22.4717C36.2312 24.8254 35.3064 27.0819 33.6622 28.7461C32.0181 30.4104 29.7889 31.3465 27.4637 31.3492H11.1797C8.85453 31.3465 6.62531 30.4104 4.98114 28.7461C3.33697 27.0819 2.41212 24.8254 2.40949 22.4717ZM49.7238 38.2697H46.7872C45.9858 41.1658 44.4955 43.819 42.4465 45.9971C43.4736 46.8282 44.5842 47.5476 45.76 48.1434L47.3991 48.9765C47.5404 49.0484 47.6665 49.1477 47.7699 49.2689C47.8734 49.39 47.9523 49.5307 48.002 49.6827C48.0518 49.8347 48.0715 49.9952 48.06 50.1549C48.0485 50.3146 48.0061 50.4705 47.9351 50.6136C47.8641 50.7567 47.7659 50.8843 47.6462 50.989C47.5265 51.0937 47.3876 51.1736 47.2374 51.224C47.0873 51.2744 46.9287 51.2943 46.7709 51.2827C46.6131 51.2711 46.4592 51.2281 46.3178 51.1562L44.6787 50.3231C43.249 49.6 41.9051 48.7149 40.6728 47.6847C39.4444 48.715 38.104 49.6002 36.6776 50.3231L35.0386 51.1562C34.7531 51.3013 34.4223 51.3257 34.119 51.2239C33.8157 51.1222 33.5647 50.9026 33.4213 50.6136C33.2779 50.3245 33.2538 49.9896 33.3544 49.6826C33.4549 49.3756 33.6718 49.1216 33.9574 48.9764L35.5963 48.1434C36.7693 47.5485 37.877 46.8299 38.9008 45.9995C37.6875 44.6972 36.6632 43.2271 35.8585 41.6331C35.7867 41.4904 35.7433 41.3348 35.7309 41.1751C35.7185 41.0154 35.7372 40.8549 35.7861 40.7026C35.835 40.5502 35.913 40.4092 36.0158 40.2874C36.1185 40.1656 36.244 40.0655 36.3849 39.9928C36.5259 39.9201 36.6796 39.8762 36.8374 39.8636C36.9951 39.851 37.1537 39.87 37.3042 39.9195C37.4547 39.969 37.594 40.048 37.7143 40.152C37.8347 40.256 37.9336 40.383 38.0054 40.5256C38.7104 41.9212 39.6087 43.2077 40.6731 44.3461C42.3041 42.6167 43.5335 40.5409 44.2716 38.2697H31.6326C31.313 38.2697 31.0066 38.1412 30.7806 37.9125C30.5547 37.6838 30.4278 37.3736 30.4278 37.0502C30.4278 36.7268 30.5547 36.4166 30.7806 36.1879C31.0066 35.9592 31.313 35.8307 31.6326 35.8307H39.4735V32.1456C39.4735 31.8221 39.6004 31.5119 39.8263 31.2832C40.0523 31.0545 40.3587 30.926 40.6783 30.926C40.9978 30.926 41.3042 31.0545 41.5302 31.2832C41.7561 31.5119 41.883 31.8221 41.883 32.1456V35.8307H49.7238C50.0433 35.8307 50.3498 35.9592 50.5757 36.1879C50.8017 36.4166 50.9286 36.7268 50.9286 37.0502C50.9286 37.3736 50.8017 37.6838 50.5757 37.9125C50.3498 38.1412 50.0433 38.2697 49.7238 38.2697Z" fill="white"/>
<path d="M21.4772 10.3427C21.0838 9.3577 20.2579 8.74578 19.3217 8.74578C18.3856 8.74578 17.5595 9.3577 17.1661 10.3428L11.9653 23.3659C11.906 23.5144 11.8762 23.6732 11.8775 23.8334C11.8789 23.9935 11.9114 24.1518 11.9732 24.2993C12.035 24.4467 12.1249 24.5803 12.2377 24.6926C12.3505 24.8049 12.4841 24.8936 12.6308 24.9536C12.7775 25.0136 12.9344 25.0438 13.0926 25.0424C13.2508 25.041 13.4072 25.0081 13.5528 24.9456C13.6985 24.883 13.8305 24.7921 13.9414 24.6778C14.0524 24.5636 14.14 24.4284 14.1993 24.28L16.1491 19.3975H22.4943L24.4441 24.28C24.5031 24.4289 24.5905 24.5646 24.7014 24.6792C24.8122 24.7939 24.9444 24.8853 25.0902 24.9482C25.236 25.0111 25.3927 25.0442 25.5512 25.0457C25.7097 25.0472 25.8669 25.017 26.0139 24.9569C26.1608 24.8968 26.2946 24.8079 26.4076 24.6953C26.5206 24.5827 26.6105 24.4487 26.6722 24.3009C26.7339 24.1531 26.7661 23.9945 26.7671 23.834C26.7682 23.6736 26.7379 23.5145 26.678 23.3659L21.4772 10.3427ZM17.1231 16.9585L19.3217 11.4532L21.5203 16.9585H17.1231Z" fill="white"/>
</svg>
